<svg width="284" height="146" viewBox="0 0 284 146" fill="none" xmlns="http://www.w3.org/2000/svg">
<g filter="url(#filter0_i)">
<path d="M65.952 128.344L68.4 132.232C61.872 137.608 56.352 140.296 51.84 140.296C49.728 140.296 47.856 139.624 46.224 138.28C44.592 136.936 42.48 134.056 39.888 129.64L24.48 103.432C19.392 114.376 16.848 125.992 16.848 138.28C12.528 138.472 8.592 139.144 5.04 140.296L2.736 138.424C4.464 133.048 6.048 126.568 7.488 118.984L22.176 42.376C22.368 41.416 22.464 40.408 22.464 39.352C22.464 37.432 18.768 35.8 11.376 34.456L12.096 29.848C22.944 28.504 30.528 27.832 34.848 27.832L36.144 29.272C35.952 33.208 35.424 37.576 34.56 42.376L29.664 67.72C29.28 69.736 28.128 73.528 26.208 79.096C24.384 84.568 23.04 89.224 22.176 93.064L21.456 96.664L22.32 96.952C26.16 88.696 31.824 81.928 39.312 76.648C46.896 71.368 54.048 68.728 60.768 68.728C62.496 68.728 64.32 69.112 66.24 69.88C68.256 70.552 69.264 71.56 69.264 72.904C69.264 75.304 68.496 77.8 66.96 80.392C65.52 82.984 64.176 84.28 62.928 84.28C61.776 84.28 59.808 83.512 57.024 81.976C54.336 80.344 52.704 79.528 52.128 79.528C45.312 79.528 38.496 83.608 31.68 91.768L53.136 128.344C54.48 130.648 55.728 131.8 56.88 131.8C58.128 131.8 61.152 130.648 65.952 128.344Z" fill="#FC7E7E"/>
</g>
<g clip-path="url(#clip0)">
<path d="M280.942 86.9841H279.922V81.3846C279.922 76.1585 267.281 72.0522 251.378 72.0522C235.475 72.0522 222.834 76.1585 222.834 81.3846V86.9841H221.815C220.127 86.9841 218.757 88.237 218.757 89.7838V99.1162C218.757 100.662 220.127 101.916 221.815 101.916H222.834V120.581C222.834 122.642 224.66 124.314 226.912 124.314V128.047C226.912 130.108 228.738 131.78 230.99 131.78H235.068C237.319 131.78 239.145 130.108 239.145 128.047V124.314H263.611V128.047C263.611 130.108 265.437 131.78 267.689 131.78H271.767C274.019 131.78 275.845 130.108 275.845 128.047V124.314H276.66C278.699 124.314 279.922 122.821 279.922 121.327V101.916H280.942C282.63 101.916 284 100.662 284 99.1162V89.7838C284 88.237 282.63 86.9841 280.942 86.9841ZM233.029 118.714C230.777 118.714 228.951 117.043 228.951 114.981C228.951 112.92 230.777 111.248 233.029 111.248C235.28 111.248 237.106 112.92 237.106 114.981C237.106 117.043 235.28 118.714 233.029 118.714ZM235.068 105.649C232.816 105.649 230.99 103.977 230.99 101.916V86.9841C230.99 84.9228 232.816 83.2511 235.068 83.2511H267.689C269.941 83.2511 271.767 84.9228 271.767 86.9841V101.916C271.767 103.977 269.941 105.649 267.689 105.649H235.068ZM269.728 118.714C267.476 118.714 265.65 117.043 265.65 114.981C265.65 112.92 267.476 111.248 269.728 111.248C271.98 111.248 273.806 112.92 273.806 114.981C273.806 117.043 271.98 118.714 269.728 118.714Z" fill="black"/>
</g>
<path d="M82.7228 97.7153L78.3068 97.1393C77.5815 97.1393 76.5788 97.9073 75.2988 99.4433C74.0188 100.937 72.6748 102.921 71.2668 105.395L76.2588 117.555C76.7708 118.835 77.3681 119.475 78.0508 119.475C78.6055 119.475 79.9495 118.963 82.0828 117.939L83.1708 119.667C80.2695 122.057 77.9868 123.251 76.3228 123.251C75.2135 123.251 74.2321 123.017 73.3788 122.547C72.5681 122.035 71.8641 121.033 71.2668 119.539L67.6828 110.835C65.0375 115.145 62.7975 118.281 60.9628 120.243C59.1281 122.206 56.9521 123.187 54.4348 123.187C52.6001 123.187 51.6828 122.697 51.6828 121.715C51.6828 120.691 51.9388 119.646 52.4508 118.579C52.9628 117.47 53.4748 116.915 53.9868 116.915L58.4028 117.491C59.1708 117.491 60.3015 116.574 61.7948 114.739C63.2881 112.862 64.8028 110.473 66.3388 107.571L62.2428 97.5233C61.9015 96.7553 61.5815 96.2006 61.2828 95.8593C60.9841 95.518 60.6215 95.3046 60.1948 95.2193C59.7681 95.0913 59.4481 95.006 59.2348 94.9633C59.0215 94.9206 58.5308 94.878 57.7628 94.8353C57.0375 94.75 56.4615 94.686 56.0348 94.6433L56.3548 92.5953C60.9628 91.998 63.9495 91.6993 65.3148 91.6993L65.8908 92.3393L69.9228 102.259C72.0135 98.846 73.8695 96.3073 75.4908 94.6433C77.4961 92.51 79.6081 91.4433 81.8268 91.4433C84.0455 91.4433 85.1548 91.9553 85.1548 92.9793C85.1548 93.9606 84.8775 95.006 84.3228 96.1153C83.8108 97.182 83.2775 97.7153 82.7228 97.7153ZM86.9538 136.691L85.9298 135.859C86.6978 133.47 87.4018 130.59 88.0418 127.219L93.4178 98.5473C93.5031 98.1206 93.5458 97.6726 93.5458 97.2033C93.5458 96.35 91.9031 95.6246 88.6178 95.0273L88.9378 92.9793C93.7591 92.382 97.1298 92.0833 99.0498 92.0833L99.6258 92.7233L97.3218 103.859L97.8338 103.987C101.588 95.6246 106.026 91.4433 111.146 91.4433C113.364 91.4433 115.028 92.2753 116.138 93.9393C117.247 95.6033 117.802 97.7366 117.802 100.339C117.802 106.995 116.095 112.478 112.682 116.787C109.311 121.097 105.172 123.251 100.266 123.251C98.6445 123.251 96.5538 122.782 93.9938 121.843C93.0978 127.347 92.6498 131.998 92.6498 135.795C90.2605 135.881 88.3618 136.179 86.9538 136.691ZM95.9778 117.811C98.0258 119.049 100.116 119.667 102.25 119.667C104.383 119.667 105.791 119.326 106.474 118.643C107.924 117.321 109.204 114.953 110.314 111.539C111.466 108.083 112.042 105.011 112.042 102.323C112.042 97.9286 111.06 95.7313 109.098 95.7313C106.58 95.7313 103.892 98.2486 101.034 103.283C98.1751 108.318 96.4898 113.161 95.9778 117.811ZM142.046 98.5473L137.758 97.7153C137.331 97.7153 136.734 98.1846 135.966 99.1233C134.259 101.129 132.424 104.393 130.462 108.915C128.499 113.395 127.518 117.875 127.518 122.355C125.598 122.441 123.848 122.739 122.27 123.251L121.246 122.419C122.014 120.03 122.718 117.15 123.358 113.779L126.11 98.5473C126.195 98.1206 126.238 97.6726 126.238 97.2033C126.238 96.35 124.595 95.6246 121.31 95.0273L121.63 92.9793C126.451 92.382 129.822 92.0833 131.742 92.0833L132.318 92.7233L129.566 103.859L130.014 103.987C131.123 101.47 132.382 99.23 133.79 97.2673C136.606 93.3846 139.336 91.4433 141.982 91.4433C143.944 91.4433 144.926 91.934 144.926 92.9153C144.926 94.11 144.584 95.3473 143.902 96.6273C143.262 97.9073 142.643 98.5473 142.046 98.5473ZM166.06 115.187L167.596 116.851C165.975 118.601 164.076 120.115 161.9 121.395C159.724 122.633 157.548 123.251 155.372 123.251C153.196 123.251 151.234 122.355 149.484 120.563C147.735 118.729 146.86 115.998 146.86 112.371C146.86 106.526 148.46 101.577 151.66 97.5233C154.903 93.47 158.764 91.4433 163.244 91.4433C165.079 91.4433 166.551 91.9126 167.66 92.8513C168.812 93.7473 169.388 95.1126 169.388 96.9473C169.388 100.403 167.532 103.155 163.82 105.203C160.663 106.995 156.951 108.233 152.684 108.915C152.599 109.427 152.556 110.153 152.556 111.091C152.556 113.822 152.962 115.763 153.772 116.915C154.583 118.025 156.012 118.579 158.06 118.579C160.151 118.579 162.818 117.449 166.06 115.187ZM153.004 106.163C156.375 105.31 158.999 104.201 160.876 102.835C162.796 101.427 163.756 99.8486 163.756 98.0993C163.756 96.0513 162.775 95.0273 160.812 95.0273C159.447 95.0273 158.252 95.4753 157.228 96.3713C156.418 97.2246 155.586 98.59 154.732 100.467C153.922 102.345 153.346 104.243 153.004 106.163ZM187.918 100.595L188.046 98.0353C188.046 96.6273 187.854 95.71 187.47 95.2833C187.129 94.8566 185.998 94.6433 184.078 94.6433C182.158 94.6433 180.686 94.9846 179.662 95.6673C179.321 95.9233 179.022 96.4353 178.766 97.2033C178.51 97.9286 178.382 98.5473 178.382 99.0593C178.382 99.5713 178.425 100.019 178.51 100.403C178.638 100.745 178.852 101.086 179.15 101.427C179.449 101.769 179.684 102.046 179.854 102.259C180.068 102.473 180.452 102.75 181.006 103.091C181.561 103.433 181.945 103.667 182.158 103.795C182.414 103.923 182.884 104.179 183.566 104.563C184.292 104.905 184.974 105.246 185.614 105.587C186.894 106.27 188.217 107.209 189.582 108.403C190.948 109.555 191.63 111.07 191.63 112.947C191.63 115.891 190.457 118.345 188.11 120.307C185.764 122.27 182.841 123.251 179.342 123.251C175.886 123.251 173.049 122.611 170.83 121.331C170.916 118.643 171.449 115.721 172.43 112.563H175.63C175.46 114.057 175.374 115.337 175.374 116.403C175.374 118.707 176.974 119.859 180.174 119.859C182.734 119.859 184.42 119.539 185.23 118.899C185.572 118.601 185.87 118.046 186.126 117.235C186.425 116.425 186.574 115.763 186.574 115.251C186.574 114.697 186.51 114.249 186.382 113.907C186.297 113.523 186.105 113.182 185.806 112.883C185.508 112.542 185.273 112.265 185.102 112.051C184.932 111.838 184.569 111.582 184.014 111.283C183.46 110.942 183.076 110.707 182.862 110.579C182.692 110.451 182.244 110.217 181.518 109.875C178.745 108.51 176.782 107.187 175.63 105.907C174.478 104.585 173.902 102.707 173.902 100.275C173.902 97.8433 174.969 95.774 177.102 94.0673C179.236 92.318 182.073 91.4433 185.614 91.4433C188.004 91.4433 190.329 91.87 192.59 92.7233C192.377 95.2406 191.886 97.8646 191.118 100.595H187.918ZM212.106 100.595L212.234 98.0353C212.234 96.6273 212.042 95.71 211.658 95.2833C211.316 94.8566 210.186 94.6433 208.266 94.6433C206.346 94.6433 204.874 94.9846 203.85 95.6673C203.508 95.9233 203.21 96.4353 202.954 97.2033C202.698 97.9286 202.57 98.5473 202.57 99.0593C202.57 99.5713 202.612 100.019 202.698 100.403C202.826 100.745 203.039 101.086 203.338 101.427C203.636 101.769 203.871 102.046 204.042 102.259C204.255 102.473 204.639 102.75 205.194 103.091C205.748 103.433 206.132 103.667 206.346 103.795C206.602 103.923 207.071 104.179 207.754 104.563C208.479 104.905 209.162 105.246 209.802 105.587C211.082 106.27 212.404 107.209 213.77 108.403C215.135 109.555 215.818 111.07 215.818 112.947C215.818 115.891 214.644 118.345 212.298 120.307C209.951 122.27 207.028 123.251 203.53 123.251C200.074 123.251 197.236 122.611 195.018 121.331C195.103 118.643 195.636 115.721 196.618 112.563H199.818C199.647 114.057 199.562 115.337 199.562 116.403C199.562 118.707 201.162 119.859 204.362 119.859C206.922 119.859 208.607 119.539 209.418 118.899C209.759 118.601 210.058 118.046 210.314 117.235C210.612 116.425 210.762 115.763 210.762 115.251C210.762 114.697 210.698 114.249 210.57 113.907C210.484 113.523 210.292 113.182 209.994 112.883C209.695 112.542 209.46 112.265 209.29 112.051C209.119 111.838 208.756 111.582 208.202 111.283C207.647 110.942 207.263 110.707 207.05 110.579C206.879 110.451 206.431 110.217 205.706 109.875C202.932 108.51 200.97 107.187 199.818 105.907C198.666 104.585 198.09 102.707 198.09 100.275C198.09 97.8433 199.156 95.774 201.29 94.0673C203.423 92.318 206.26 91.4433 209.802 91.4433C212.191 91.4433 214.516 91.87 216.778 92.7233C216.564 95.2406 216.074 97.8646 215.306 100.595H212.106Z" fill="black"/>
<defs>
<filter id="filter0_i" x="2.73599" y="27.832" width="66.528" height="116.464" filterUnits="userSpaceOnUse" color-interpolation-filters="sRGB">
<feFlood flood-opacity="0" result="BackgroundImageFix"/>
<feBlend mode="normal" in="SourceGraphic" in2="BackgroundImageFix" result="shape"/>
<feColorMatrix in="SourceAlpha" type="matrix" values="0 0 0 0 0 0 0 0 0 0 0 0 0 0 0 0 0 0 127 0" result="hardAlpha"/>
<feOffset dy="4"/>
<feGaussianBlur stdDeviation="2"/>
<feComposite in2="hardAlpha" operator="arithmetic" k2="-1" k3="1"/>
<feColorMatrix type="matrix" values="0 0 0 0 0 0 0 0 0 0 0 0 0 0 0 0 0 0 0.25 0"/>
<feBlend mode="normal" in2="shape" result="effect1_innerShadow"/>
</filter>
<clipPath id="clip0">
<rect width="65.2432" height="59.7274" fill="white" transform="translate(218.757 72.0522)"/>
</clipPath>
</defs>
</svg>
