<svg width="330" height="114" viewBox="0 0 330 114" fill="none" xmlns="http://www.w3.org/2000/svg">
<g clip-path="url(#clip0)">
<path d="M91.3205 68.7669C112.548 91.446 89.6876 120.833 57.0301 99.7511C35.1495 115.403 -3.33204 100.39 22.7396 59.1842C6.08428 38.1022 57.0301 9.67334 70.7462 32.3525C95.005 32.3525 115.161 52.1568 91.3205 68.7669Z" fill="#EDD5D5"/>
<g filter="url(#filter0_i)">
<path d="M97.952 99.344L100.4 103.232C93.872 108.608 88.352 111.296 83.84 111.296C81.728 111.296 79.856 110.624 78.224 109.28C76.592 107.936 74.48 105.056 71.888 100.64L56.48 74.432C51.392 85.376 48.848 96.992 48.848 109.28C44.528 109.472 40.592 110.144 37.04 111.296L34.736 109.424C36.464 104.048 38.048 97.568 39.488 89.984L54.176 13.376C54.368 12.416 54.464 11.408 54.464 10.352C54.464 8.432 50.768 6.8 43.376 5.456L44.096 0.847998C54.944 -0.496002 62.528 -1.168 66.848 -1.168L68.144 0.271996C67.952 4.208 67.424 8.576 66.56 13.376L61.664 38.72C61.28 40.736 60.128 44.528 58.208 50.096C56.384 55.568 55.04 60.224 54.176 64.064L53.456 67.664L54.32 67.952C58.16 59.696 63.824 52.928 71.312 47.648C78.896 42.368 86.048 39.728 92.768 39.728C94.496 39.728 96.32 40.112 98.24 40.88C100.256 41.552 101.264 42.56 101.264 43.904C101.264 46.304 100.496 48.8 98.96 51.392C97.52 53.984 96.176 55.28 94.928 55.28C93.776 55.28 91.808 54.512 89.024 52.976C86.336 51.344 84.704 50.528 84.128 50.528C77.312 50.528 70.496 54.608 63.68 62.768L85.136 99.344C86.48 101.648 87.728 102.8 88.88 102.8C90.128 102.8 93.152 101.648 97.952 99.344Z" fill="#FC7E7E"/>
</g>
<g clip-path="url(#clip1)">
<path d="M312.942 54.9318H311.922V49.3324C311.922 44.1063 299.281 40 283.378 40C267.475 40 254.834 44.1063 254.834 49.3324V54.9318H253.815C252.127 54.9318 250.757 56.1847 250.757 57.7316V67.064C250.757 68.6096 252.127 69.8637 253.815 69.8637H254.834V88.5285C254.834 90.5898 256.66 92.2615 258.912 92.2615V95.9944C258.912 98.0557 260.738 99.7274 262.99 99.7274H267.068C269.319 99.7274 271.145 98.0557 271.145 95.9944V92.2615H295.611V95.9944C295.611 98.0557 297.437 99.7274 299.689 99.7274H303.767C306.019 99.7274 307.845 98.0557 307.845 95.9944V92.2615H308.66C310.699 92.2615 311.922 90.7683 311.922 89.2751V69.8637H312.942C314.63 69.8637 316 68.6096 316 67.064V57.7316C316 56.1847 314.63 54.9318 312.942 54.9318ZM265.029 86.662C262.777 86.662 260.951 84.9903 260.951 82.9291C260.951 80.8678 262.777 79.1961 265.029 79.1961C267.28 79.1961 269.106 80.8678 269.106 82.9291C269.106 84.9903 267.28 86.662 265.029 86.662ZM267.068 73.5966C264.816 73.5966 262.99 71.925 262.99 69.8637V54.9318C262.99 52.8705 264.816 51.1989 267.068 51.1989H299.689C301.941 51.1989 303.767 52.8705 303.767 54.9318V69.8637C303.767 71.925 301.941 73.5966 299.689 73.5966H267.068ZM301.728 86.662C299.476 86.662 297.65 84.9903 297.65 82.9291C297.65 80.8678 299.476 79.1961 301.728 79.1961C303.98 79.1961 305.806 80.8678 305.806 82.9291C305.806 84.9903 303.98 86.662 301.728 86.662Z" fill="black"/>
</g>
<path d="M114.723 65.7153L110.307 65.1393C109.581 65.1393 108.579 65.9073 107.299 67.4433C106.019 68.9366 104.675 70.9206 103.267 73.3953L108.259 85.5553C108.771 86.8353 109.368 87.4753 110.051 87.4753C110.605 87.4753 111.949 86.9633 114.083 85.9393L115.171 87.6673C112.269 90.0566 109.987 91.2513 108.323 91.2513C107.213 91.2513 106.232 91.0166 105.379 90.5473C104.568 90.0353 103.864 89.0326 103.267 87.5393L99.6828 78.8353C97.0375 83.1446 94.7975 86.2806 92.9628 88.2433C91.1281 90.206 88.9521 91.1873 86.4348 91.1873C84.6001 91.1873 83.6828 90.6966 83.6828 89.7153C83.6828 88.6913 83.9388 87.646 84.4508 86.5793C84.9628 85.47 85.4748 84.9153 85.9868 84.9153L90.4028 85.4913C91.1708 85.4913 92.3015 84.574 93.7948 82.7393C95.2881 80.862 96.8028 78.4726 98.3388 75.5713L94.2428 65.5233C93.9015 64.7553 93.5815 64.2006 93.2828 63.8593C92.9841 63.518 92.6215 63.3046 92.1948 63.2193C91.7681 63.0913 91.4481 63.006 91.2348 62.9633C91.0215 62.9206 90.5308 62.878 89.7628 62.8353C89.0375 62.75 88.4615 62.686 88.0348 62.6433L88.3548 60.5953C92.9628 59.998 95.9495 59.6993 97.3148 59.6993L97.8908 60.3393L101.923 70.2593C104.013 66.846 105.869 64.3073 107.491 62.6433C109.496 60.51 111.608 59.4433 113.827 59.4433C116.045 59.4433 117.155 59.9553 117.155 60.9793C117.155 61.9606 116.877 63.006 116.323 64.1153C115.811 65.182 115.277 65.7153 114.723 65.7153ZM118.954 104.691L117.93 103.859C118.698 101.47 119.402 98.59 120.042 95.2193L125.418 66.5473C125.503 66.1206 125.546 65.6726 125.546 65.2033C125.546 64.35 123.903 63.6246 120.618 63.0273L120.938 60.9793C125.759 60.382 129.13 60.0833 131.05 60.0833L131.626 60.7233L129.322 71.8593L129.834 71.9873C133.588 63.6246 138.026 59.4433 143.146 59.4433C145.364 59.4433 147.028 60.2753 148.138 61.9393C149.247 63.6033 149.802 65.7366 149.802 68.3393C149.802 74.9953 148.095 80.478 144.682 84.7873C141.311 89.0966 137.172 91.2513 132.266 91.2513C130.644 91.2513 128.554 90.782 125.994 89.8433C125.098 95.3473 124.65 99.998 124.65 103.795C122.26 103.881 120.362 104.179 118.954 104.691ZM127.978 85.8113C130.026 87.0486 132.116 87.6673 134.25 87.6673C136.383 87.6673 137.791 87.326 138.474 86.6433C139.924 85.3206 141.204 82.9526 142.314 79.5393C143.466 76.0833 144.042 73.0113 144.042 70.3233C144.042 65.9286 143.06 63.7313 141.098 63.7313C138.58 63.7313 135.892 66.2486 133.034 71.2833C130.175 76.318 128.49 81.1606 127.978 85.8113ZM174.046 66.5473L169.758 65.7153C169.331 65.7153 168.734 66.1846 167.966 67.1233C166.259 69.1286 164.424 72.3926 162.462 76.9153C160.499 81.3953 159.518 85.8753 159.518 90.3553C157.598 90.4406 155.848 90.7393 154.27 91.2513L153.246 90.4193C154.014 88.03 154.718 85.15 155.358 81.7793L158.11 66.5473C158.195 66.1206 158.238 65.6726 158.238 65.2033C158.238 64.35 156.595 63.6246 153.31 63.0273L153.63 60.9793C158.451 60.382 161.822 60.0833 163.742 60.0833L164.318 60.7233L161.566 71.8593L162.014 71.9873C163.123 69.47 164.382 67.23 165.79 65.2673C168.606 61.3846 171.336 59.4433 173.982 59.4433C175.944 59.4433 176.926 59.934 176.926 60.9153C176.926 62.11 176.584 63.3473 175.902 64.6273C175.262 65.9073 174.643 66.5473 174.046 66.5473ZM198.06 83.1873L199.596 84.8513C197.975 86.6006 196.076 88.1153 193.9 89.3953C191.724 90.6326 189.548 91.2513 187.372 91.2513C185.196 91.2513 183.234 90.3553 181.484 88.5633C179.735 86.7286 178.86 83.998 178.86 80.3713C178.86 74.526 180.46 69.5766 183.66 65.5233C186.903 61.47 190.764 59.4433 195.244 59.4433C197.079 59.4433 198.551 59.9126 199.66 60.8513C200.812 61.7473 201.388 63.1126 201.388 64.9473C201.388 68.4033 199.532 71.1553 195.82 73.2033C192.663 74.9953 188.951 76.2326 184.684 76.9153C184.599 77.4273 184.556 78.1526 184.556 79.0913C184.556 81.822 184.962 83.7633 185.772 84.9153C186.583 86.0246 188.012 86.5793 190.06 86.5793C192.151 86.5793 194.818 85.4486 198.06 83.1873ZM185.004 74.1633C188.375 73.31 190.999 72.2006 192.876 70.8353C194.796 69.4273 195.756 67.8486 195.756 66.0993C195.756 64.0513 194.775 63.0273 192.812 63.0273C191.447 63.0273 190.252 63.4753 189.228 64.3713C188.418 65.2246 187.586 66.59 186.732 68.4673C185.922 70.3446 185.346 72.2433 185.004 74.1633ZM219.918 68.5953L220.046 66.0353C220.046 64.6273 219.854 63.71 219.47 63.2833C219.129 62.8566 217.998 62.6433 216.078 62.6433C214.158 62.6433 212.686 62.9846 211.662 63.6673C211.321 63.9233 211.022 64.4353 210.766 65.2033C210.51 65.9286 210.382 66.5473 210.382 67.0593C210.382 67.5713 210.425 68.0193 210.51 68.4033C210.638 68.7446 210.852 69.086 211.15 69.4273C211.449 69.7686 211.684 70.046 211.854 70.2593C212.068 70.4726 212.452 70.75 213.006 71.0913C213.561 71.4326 213.945 71.6673 214.158 71.7953C214.414 71.9233 214.884 72.1793 215.566 72.5633C216.292 72.9046 216.974 73.246 217.614 73.5873C218.894 74.27 220.217 75.2086 221.582 76.4033C222.948 77.5553 223.63 79.07 223.63 80.9473C223.63 83.8913 222.457 86.3446 220.11 88.3073C217.764 90.27 214.841 91.2513 211.342 91.2513C207.886 91.2513 205.049 90.6113 202.83 89.3313C202.916 86.6433 203.449 83.7206 204.43 80.5633H207.63C207.46 82.0566 207.374 83.3366 207.374 84.4033C207.374 86.7073 208.974 87.8593 212.174 87.8593C214.734 87.8593 216.42 87.5393 217.23 86.8993C217.572 86.6006 217.87 86.046 218.126 85.2353C218.425 84.4246 218.574 83.7633 218.574 83.2513C218.574 82.6966 218.51 82.2486 218.382 81.9073C218.297 81.5233 218.105 81.182 217.806 80.8833C217.508 80.542 217.273 80.2646 217.102 80.0513C216.932 79.838 216.569 79.582 216.014 79.2833C215.46 78.942 215.076 78.7073 214.862 78.5793C214.692 78.4513 214.244 78.2166 213.518 77.8753C210.745 76.51 208.782 75.1873 207.63 73.9073C206.478 72.5846 205.902 70.7073 205.902 68.2753C205.902 65.8433 206.969 63.774 209.102 62.0673C211.236 60.318 214.073 59.4433 217.614 59.4433C220.004 59.4433 222.329 59.87 224.59 60.7233C224.377 63.2406 223.886 65.8646 223.118 68.5953H219.918ZM244.106 68.5953L244.234 66.0353C244.234 64.6273 244.042 63.71 243.658 63.2833C243.316 62.8566 242.186 62.6433 240.266 62.6433C238.346 62.6433 236.874 62.9846 235.85 63.6673C235.508 63.9233 235.21 64.4353 234.954 65.2033C234.698 65.9286 234.57 66.5473 234.57 67.0593C234.57 67.5713 234.612 68.0193 234.698 68.4033C234.826 68.7446 235.039 69.086 235.338 69.4273C235.636 69.7686 235.871 70.046 236.042 70.2593C236.255 70.4726 236.639 70.75 237.194 71.0913C237.748 71.4326 238.132 71.6673 238.346 71.7953C238.602 71.9233 239.071 72.1793 239.754 72.5633C240.479 72.9046 241.162 73.246 241.802 73.5873C243.082 74.27 244.404 75.2086 245.77 76.4033C247.135 77.5553 247.818 79.07 247.818 80.9473C247.818 83.8913 246.644 86.3446 244.298 88.3073C241.951 90.27 239.028 91.2513 235.53 91.2513C232.074 91.2513 229.236 90.6113 227.018 89.3313C227.103 86.6433 227.636 83.7206 228.618 80.5633H231.818C231.647 82.0566 231.562 83.3366 231.562 84.4033C231.562 86.7073 233.162 87.8593 236.362 87.8593C238.922 87.8593 240.607 87.5393 241.418 86.8993C241.759 86.6006 242.058 86.046 242.314 85.2353C242.612 84.4246 242.762 83.7633 242.762 83.2513C242.762 82.6966 242.698 82.2486 242.57 81.9073C242.484 81.5233 242.292 81.182 241.994 80.8833C241.695 80.542 241.46 80.2646 241.29 80.0513C241.119 79.838 240.756 79.582 240.202 79.2833C239.647 78.942 239.263 78.7073 239.05 78.5793C238.879 78.4513 238.431 78.2166 237.706 77.8753C234.932 76.51 232.97 75.1873 231.818 73.9073C230.666 72.5846 230.09 70.7073 230.09 68.2753C230.09 65.8433 231.156 63.774 233.29 62.0673C235.423 60.318 238.26 59.4433 241.802 59.4433C244.191 59.4433 246.516 59.87 248.778 60.7233C248.564 63.2406 248.074 65.8646 247.306 68.5953H244.106Z" fill="black"/>
</g>
<defs>
<filter id="filter0_i" x="34.736" y="-1.16797" width="66.528" height="116.464" filterUnits="userSpaceOnUse" color-interpolation-filters="sRGB">
<feFlood flood-opacity="0" result="BackgroundImageFix"/>
<feBlend mode="normal" in="SourceGraphic" in2="BackgroundImageFix" result="shape"/>
<feColorMatrix in="SourceAlpha" type="matrix" values="0 0 0 0 0 0 0 0 0 0 0 0 0 0 0 0 0 0 127 0" result="hardAlpha"/>
<feOffset dy="4"/>
<feGaussianBlur stdDeviation="2"/>
<feComposite in2="hardAlpha" operator="arithmetic" k2="-1" k3="1"/>
<feColorMatrix type="matrix" values="0 0 0 0 0 0 0 0 0 0 0 0 0 0 0 0 0 0 0.25 0"/>
<feBlend mode="normal" in2="shape" result="effect1_innerShadow"/>
</filter>
<clipPath id="clip0">
<rect width="330" height="114" fill="white"/>
</clipPath>
<clipPath id="clip1">
<rect width="65.2432" height="59.7274" fill="white" transform="translate(250.757 40)"/>
</clipPath>
</defs>
</svg>
